<svg width="87" height="50" viewBox="0 0 87 50" fill="none" xmlns="http://www.w3.org/2000/svg">
<path d="M67.328 41.4086H63.7993V37.9137C61.214 40.7687 58.237 42.194 54.8667 42.194C51.4965 42.194 48.6133 40.9497 46.2173 38.4594C43.8213 35.9692 42.6226 32.9995 42.6226 29.5488C42.6226 26.0981 43.8272 23.143 46.2393 20.6808C48.65 18.22 51.5918 16.9903 55.0633 16.9903C58.5348 16.9903 61.4473 18.4038 63.7993 21.2279V17.6022H67.328V41.4086ZM55.1279 38.8316C57.5386 38.8316 59.6162 37.9579 61.3593 36.2104C63.1024 34.463 63.9739 32.2861 63.9739 29.6797C63.9739 27.0733 63.117 24.8905 61.4033 23.1268C59.6896 21.3647 57.5914 20.4837 55.1073 20.4837C52.6233 20.4837 50.5251 21.3941 48.8114 23.2136C47.0977 25.0346 46.2408 27.1821 46.2408 29.6561C46.2408 32.1317 47.1123 34.2792 48.8554 36.0987C50.597 37.9226 52.6879 38.8316 55.1279 38.8316Z" fill="url(#paint0_linear)"/>
<path d="M86.85 17.6022L72.7761 49.8383H69.0288L73.6037 39.3552L63.9741 17.6022H67.7215L75.5214 35.0308L83.0601 17.6022H86.85Z" fill="url(#paint1_linear)"/>
<path d="M44.949 49.5441H44.5309L44.1963 47.0892L42.9873 49.5441H42.8597L41.636 47.0701L41.3015 49.5441H40.8936L41.4042 45.936H41.5069L42.9228 48.7998L44.3284 45.936H44.4311L44.949 49.5441Z" fill="url(#paint2_linear)"/>
<path d="M50.6465 48.1041C50.6465 48.4689 50.6098 48.7483 50.5364 48.944C50.4631 49.1396 50.331 49.3029 50.1432 49.4338C49.9554 49.5647 49.7339 49.6309 49.4815 49.6309C49.282 49.6309 49.1015 49.5985 48.9416 49.5353C48.7802 49.4706 48.6467 49.3808 48.541 49.2646C48.4339 49.1484 48.3576 49.0175 48.3121 48.8748C48.2666 48.7322 48.2432 48.4748 48.2432 48.1041V45.936H48.6657V48.1041C48.6657 48.338 48.6731 48.5056 48.6863 48.6086C48.6995 48.7116 48.7362 48.8131 48.7992 48.9087C48.8623 49.0057 48.9504 49.0822 49.0677 49.1396C49.1837 49.197 49.3157 49.2264 49.4639 49.2264C49.6414 49.2264 49.794 49.1749 49.9231 49.0705C50.0523 48.9675 50.1359 48.8469 50.174 48.7101C50.2122 48.5733 50.2298 48.3703 50.2298 48.1012V45.936H50.648V48.1041H50.6465Z" fill="url(#paint3_linear)"/>
<path d="M55.4902 46.7288C55.3596 46.5508 55.2481 46.4317 55.1557 46.3714C55.0647 46.3111 54.9561 46.2802 54.8343 46.2802C54.7111 46.2802 54.6084 46.3199 54.5247 46.3979C54.4411 46.4773 54.4 46.5773 54.4 46.7009C54.4 46.8244 54.4396 46.9318 54.5174 47.0245C54.5966 47.1171 54.7771 47.2672 55.0603 47.476C55.3435 47.6849 55.5503 47.8805 55.6824 48.0644C55.813 48.2482 55.879 48.4424 55.879 48.6454C55.879 48.9116 55.7763 49.1425 55.5724 49.3382C55.3684 49.5338 55.1292 49.6309 54.8563 49.6309C54.378 49.6309 54.0024 49.3632 53.731 48.8278L54.0904 48.6204C54.3032 49.0175 54.5423 49.2161 54.8079 49.2161C54.9781 49.2161 55.1234 49.1617 55.2452 49.0528C55.3669 48.944 55.4271 48.8175 55.4271 48.6733C55.4271 48.5292 55.3757 48.3909 55.2745 48.2615C55.1733 48.132 54.9972 47.9717 54.7492 47.7834C54.4998 47.5952 54.3281 47.451 54.2357 47.3525C54.1418 47.2539 54.0743 47.148 54.0317 47.0377C53.9892 46.9259 53.9687 46.8141 53.9687 46.7023C53.9687 46.4626 54.0508 46.2596 54.2166 46.0934C54.3824 45.9272 54.5966 45.8448 54.8578 45.8448C55.0617 45.8448 55.2378 45.8963 55.3889 46.0007C55.5401 46.1037 55.6868 46.2581 55.8321 46.4611L55.4902 46.7288Z" fill="url(#paint4_linear)"/>
<path d="M59.5808 49.5441H59.1582V45.936H59.5808V49.5441Z" fill="url(#paint5_linear)"/>
<path d="M66.3491 48.8837C65.9617 49.3838 65.4306 49.6323 64.7556 49.6323C64.1849 49.6323 63.7183 49.4514 63.3544 49.0896C62.9905 48.7277 62.8086 48.2718 62.8086 47.7202C62.8086 47.3789 62.8937 47.0627 63.0624 46.7744C63.2312 46.4846 63.4645 46.2581 63.7623 46.0949C64.0602 45.9301 64.3829 45.8477 64.7278 45.8477C65.0726 45.8477 65.3836 45.9139 65.6565 46.0478C65.9309 46.1802 66.1583 46.3758 66.3417 46.6317L66.0175 46.8832C65.6771 46.4699 65.256 46.2625 64.7542 46.2625C64.3448 46.2625 63.9912 46.4067 63.6948 46.6964C63.3984 46.9847 63.2502 47.3392 63.2502 47.7584C63.2502 48.1776 63.3955 48.5277 63.6845 48.8086C63.975 49.0896 64.3507 49.2308 64.8128 49.2308C65.275 49.2308 65.6771 49.0322 66.0175 48.6351L66.3491 48.8837Z" fill="url(#paint6_linear)"/>
<path d="M37.8281 25.3067C37.8281 17.386 31.4001 10.9435 23.5005 10.9435V14.1294C29.6497 14.1294 34.6516 19.1437 34.6516 25.3082C34.6516 31.4727 29.6497 36.487 23.5005 36.487V39.6729C31.4001 39.6715 37.8281 33.2275 37.8281 25.3067Z" fill="url(#paint7_linear)"/>
<path d="M41.4566 25.3067C41.4566 15.3811 33.4015 7.30591 23.5005 7.30591V10.3271C31.7405 10.3271 38.4429 17.0476 38.4429 25.3067C38.4429 33.5658 31.7391 40.2863 23.5005 40.2878V43.309C33.4015 43.3075 41.4566 35.2323 41.4566 25.3067Z" fill="url(#paint8_linear)"/>
<path d="M45.4373 25.3067C45.4373 13.1616 35.6155 3.31539 23.5005 3.31539V6.68962C33.7404 6.68962 42.0714 15.0414 42.0714 25.3067C42.0714 35.5721 33.7404 43.9238 23.5005 43.9238V47.2981C35.6155 47.2995 45.4373 37.4534 45.4373 25.3067Z" fill="url(#paint9_linear)"/>
<path d="M21.9372 29.9856C17.5398 29.9856 13.9627 26.3996 13.9627 21.9913C13.9627 17.5831 17.5398 13.997 21.9372 13.997V11.4288C16.1269 11.4288 11.4009 16.1666 11.4009 21.9913C11.4009 27.8161 16.1269 32.5538 21.9372 32.5538V29.9856Z" fill="url(#paint10_linear)"/>
<path d="M21.937 33.1701C15.7878 33.1701 10.786 28.1558 10.786 21.9913C10.786 15.8268 15.7878 10.8125 21.937 10.8125V7.62658C14.0374 7.62658 7.60938 14.0706 7.60938 21.9899C7.60938 29.9091 14.0374 36.3531 21.937 36.3531V33.1701Z" fill="url(#paint11_linear)"/>
<path d="M21.9371 36.9709C13.6985 36.9709 6.99468 30.2504 6.99468 21.9913C6.99468 13.7323 13.6985 7.01174 21.9371 7.01174V3.99053C12.0361 3.99053 3.98096 12.0657 3.98096 21.9913C3.98096 31.9169 12.0361 39.9921 21.9371 39.9921V36.9709Z" fill="url(#paint12_linear)"/>
<path d="M21.9368 40.6084C11.6969 40.6084 3.36586 32.2567 3.36586 21.9913C3.36586 11.726 11.6969 3.37423 21.9368 3.37423V0C9.82175 0 0 9.84616 0 21.9913C0 34.1365 9.82175 43.9827 21.9368 43.9827V40.6084Z" fill="url(#paint13_linear)"/>
<path d="M23.5005 14.7442V17.3124V17.4065C27.8538 17.4065 31.3811 20.944 31.3811 25.3067C31.3811 29.6709 27.8523 33.2069 23.5005 33.2069V33.301V35.8692C29.3108 35.8692 34.0368 31.1315 34.0368 25.3067C34.0368 19.482 29.3093 14.7442 23.5005 14.7442Z" fill="url(#paint14_linear)"/>
<path d="M23.5005 18.0258V32.5891C27.5119 32.5891 30.7648 29.3281 30.7648 25.3067C30.7648 21.2853 27.5119 18.0258 23.5005 18.0258Z" fill="url(#paint15_linear)"/>
<defs>
<linearGradient id="paint0_linear" x1="54.9759" y1="60.0988" x2="54.9759" y2="32.4267" gradientUnits="userSpaceOnUse">
<stop stop-color="#005BA3"/>
<stop offset="1" stop-color="#0097DB"/>
</linearGradient>
<linearGradient id="paint1_linear" x1="75.4117" y1="54.7466" x2="75.4117" y2="27.0745" gradientUnits="userSpaceOnUse">
<stop stop-color="#005BA3"/>
<stop offset="1" stop-color="#0097DB"/>
</linearGradient>
<linearGradient id="paint2_linear" x1="42.9206" y1="54.7466" x2="42.9206" y2="27.0745" gradientUnits="userSpaceOnUse">
<stop stop-color="#005BA3"/>
<stop offset="1" stop-color="#0097DB"/>
</linearGradient>
<linearGradient id="paint3_linear" x1="49.4447" y1="54.7466" x2="49.4447" y2="27.0745" gradientUnits="userSpaceOnUse">
<stop stop-color="#005BA3"/>
<stop offset="1" stop-color="#0097DB"/>
</linearGradient>
<linearGradient id="paint4_linear" x1="54.804" y1="54.7466" x2="54.804" y2="27.0745" gradientUnits="userSpaceOnUse">
<stop stop-color="#005BA3"/>
<stop offset="1" stop-color="#0097DB"/>
</linearGradient>
<linearGradient id="paint5_linear" x1="59.3688" y1="54.7466" x2="59.3688" y2="27.0745" gradientUnits="userSpaceOnUse">
<stop stop-color="#005BA3"/>
<stop offset="1" stop-color="#0097DB"/>
</linearGradient>
<linearGradient id="paint6_linear" x1="64.5799" y1="54.7466" x2="64.5799" y2="27.0745" gradientUnits="userSpaceOnUse">
<stop stop-color="#005BA3"/>
<stop offset="1" stop-color="#0097DB"/>
</linearGradient>
<linearGradient id="paint7_linear" x1="30.6642" y1="54.7466" x2="30.6642" y2="27.0745" gradientUnits="userSpaceOnUse">
<stop stop-color="#005BA3"/>
<stop offset="1" stop-color="#0097DB"/>
</linearGradient>
<linearGradient id="paint8_linear" x1="32.4783" y1="54.7466" x2="32.4783" y2="27.0745" gradientUnits="userSpaceOnUse">
<stop stop-color="#005BA3"/>
<stop offset="1" stop-color="#0097DB"/>
</linearGradient>
<linearGradient id="paint9_linear" x1="34.4688" y1="54.7466" x2="34.4688" y2="27.0745" gradientUnits="userSpaceOnUse">
<stop stop-color="#005BA3"/>
<stop offset="1" stop-color="#0097DB"/>
</linearGradient>
<linearGradient id="paint10_linear" x1="16.6694" y1="54.7467" x2="16.6694" y2="27.0745" gradientUnits="userSpaceOnUse">
<stop stop-color="#005BA3"/>
<stop offset="1" stop-color="#0097DB"/>
</linearGradient>
<linearGradient id="paint11_linear" x1="14.7733" y1="54.7466" x2="14.7733" y2="27.0745" gradientUnits="userSpaceOnUse">
<stop stop-color="#005BA3"/>
<stop offset="1" stop-color="#0097DB"/>
</linearGradient>
<linearGradient id="paint12_linear" x1="12.9593" y1="54.7466" x2="12.9593" y2="27.0745" gradientUnits="userSpaceOnUse">
<stop stop-color="#005BA3"/>
<stop offset="1" stop-color="#0097DB"/>
</linearGradient>
<linearGradient id="paint13_linear" x1="10.9685" y1="54.7466" x2="10.9685" y2="27.0745" gradientUnits="userSpaceOnUse">
<stop stop-color="#005BA3"/>
<stop offset="1" stop-color="#0097DB"/>
</linearGradient>
<linearGradient id="paint14_linear" x1="28.7683" y1="54.7466" x2="28.7683" y2="27.0745" gradientUnits="userSpaceOnUse">
<stop stop-color="#005BA3"/>
<stop offset="1" stop-color="#0097DB"/>
</linearGradient>
<linearGradient id="paint15_linear" x1="27.1321" y1="54.7465" x2="27.1321" y2="27.0745" gradientUnits="userSpaceOnUse">
<stop stop-color="#005BA3"/>
<stop offset="1" stop-color="#0097DB"/>
</linearGradient>
</defs>
</svg>
