<svg width="140" height="109" viewBox="0 0 140 109" fill="none" xmlns="http://www.w3.org/2000/svg">
<path d="M98.7773 73.6677H94.526V69.436C91.4114 72.893 87.8248 74.6188 83.7644 74.6188C79.7041 74.6188 76.2306 73.112 73.344 70.0967C70.4574 67.0814 69.0132 63.4855 69.0132 59.3071C69.0132 55.1288 70.4644 51.5507 73.3705 48.5692C76.2748 45.5895 79.819 44.1006 84.0013 44.1006C88.1836 44.1006 91.6925 45.8122 94.526 49.2318V44.8415H98.7773V73.6677ZM84.0791 70.5473C86.9834 70.5473 89.4864 69.4894 91.5864 67.3735C93.6864 65.2576 94.7364 62.6217 94.7364 59.4657C94.7364 56.3097 93.7041 53.6666 91.6394 51.5311C89.5748 49.3974 87.047 48.3306 84.0543 48.3306C81.0617 48.3306 78.5339 49.433 76.4692 51.6362C74.4046 53.8411 73.3723 56.4414 73.3723 59.4372C73.3723 62.4347 74.4223 65.035 76.5223 67.2381C78.6205 69.4466 81.1394 70.5473 84.0791 70.5473Z" fill="white"/>
<path d="M123.241 44.8413L105.396 85.9247H100.644L106.446 72.5651L94.2349 44.8413H98.9864L108.877 67.0527L118.434 44.8413H123.241Z" fill="white"/>
<path d="M54.5452 85.9248H53.7037L53.032 80.9628L50.5979 85.9248H50.3399L47.8775 80.9218L47.204 85.9248H46.3838L47.4126 78.6296H47.6194L50.4671 84.4198L53.2972 78.6296H53.504L54.5452 85.9248Z" fill="white"/>
<path d="M66.0082 83.0146C66.0082 83.7519 65.934 84.3183 65.7855 84.7137C65.637 85.1091 65.3736 85.4404 64.9936 85.7057C64.6135 85.9711 64.1716 86.1047 63.6625 86.1047C63.2595 86.1047 62.8971 86.0406 62.5754 85.9106C62.2519 85.7805 61.9832 85.5989 61.7694 85.362C61.5555 85.1269 61.4017 84.8633 61.3098 84.5748C61.2178 84.2862 61.1719 83.7662 61.1719 83.0146V78.6296H62.0221V83.0146C62.0221 83.4866 62.0363 83.8267 62.0628 84.0369C62.0893 84.2453 62.1635 84.4483 62.289 84.6442C62.4146 84.8402 62.5949 84.9969 62.8282 85.1127C63.0633 85.2284 63.3267 85.2872 63.6236 85.2872C63.9789 85.2872 64.2883 85.1821 64.5481 84.9737C64.8098 84.7653 64.9759 84.5213 65.0537 84.2471C65.1297 83.971 65.1668 83.5614 65.1668 83.0164V78.6314H66.0065V83.0146H66.0082Z" fill="white"/>
<path d="M75.7499 80.2344C75.4866 79.8764 75.2621 79.6342 75.0765 79.5113C74.8926 79.3884 74.677 79.3261 74.4295 79.3261C74.182 79.3261 73.9734 79.4062 73.8055 79.5647C73.6376 79.7232 73.5527 79.928 73.5527 80.1774C73.5527 80.4267 73.6323 80.644 73.7896 80.831C73.9487 81.018 74.3128 81.3208 74.882 81.7429C75.4512 82.165 75.8684 82.5622 76.1335 82.9344C76.3969 83.3067 76.5295 83.6985 76.5295 84.1099C76.5295 84.6478 76.3227 85.1144 75.9108 85.5098C75.4989 85.9052 75.0181 86.1029 74.4719 86.1029C73.5085 86.1029 72.7537 85.5615 72.2075 84.4786L72.9287 84.0601C73.3565 84.8633 73.8391 85.2658 74.3729 85.2658C74.7159 85.2658 75.0093 85.1572 75.2532 84.9363C75.4972 84.7173 75.6191 84.4608 75.6191 84.1687C75.6191 83.8766 75.5166 83.5988 75.3133 83.337C75.11 83.0751 74.7565 82.7528 74.2563 82.3699C73.7542 81.9887 73.4095 81.6966 73.2222 81.4971C73.0348 81.2977 72.8969 81.0857 72.8121 80.8595C72.7272 80.6333 72.6848 80.4071 72.6848 80.1827C72.6848 79.6983 72.851 79.2869 73.1833 78.952C73.5174 78.6154 73.9469 78.448 74.4737 78.448C74.882 78.448 75.2391 78.5531 75.5414 78.7615C75.8454 78.9698 76.1406 79.2815 76.4323 79.6929L75.7499 80.2344Z" fill="white"/>
<path d="M83.9801 85.9248H83.1299V78.6296H83.9801V85.9248Z" fill="white"/>
<path d="M97.5985 84.5891C96.8207 85.599 95.7513 86.1048 94.3937 86.1048C93.2465 86.1048 92.3061 85.7397 91.5743 85.0077C90.8425 84.2774 90.4766 83.3531 90.4766 82.2381C90.4766 81.5471 90.6463 80.9095 90.9856 80.3253C91.325 79.7411 91.7952 79.2816 92.3945 78.9503C92.9937 78.6191 93.6425 78.4517 94.3372 78.4517C95.0319 78.4517 95.6558 78.587 96.2074 78.856C96.7571 79.1249 97.2167 79.5185 97.5861 80.0368L96.9339 80.5444C96.248 79.7073 95.4013 79.2887 94.392 79.2887C93.5682 79.2887 92.8576 79.5808 92.2601 80.165C91.6627 80.7492 91.3657 81.4652 91.3657 82.313C91.3657 83.1607 91.6574 83.8678 92.2407 84.436C92.824 85.0041 93.5806 85.2891 94.5104 85.2891C95.4402 85.2891 96.248 84.8866 96.9339 84.0833L97.5985 84.5891Z" fill="white"/>
<path d="M64.2999 50.4285C64.2999 40.8376 56.5557 33.0366 47.0386 33.0366V36.8944C54.4469 36.8944 60.4729 42.966 60.4729 50.4303C60.4729 57.8947 54.4469 63.9663 47.0386 63.9663V67.824C56.5575 67.8204 64.2999 60.0195 64.2999 50.4285Z" fill="white"/>
<path d="M68.6714 50.4285C68.6714 38.41 58.9669 28.6321 47.0386 28.6321V32.2904C56.9659 32.2904 65.0406 40.428 65.0406 50.4285C65.0406 60.4291 56.9659 68.5667 47.0386 68.5667V72.225C58.9669 72.225 68.6714 62.447 68.6714 50.4285Z" fill="white"/>
<path d="M73.4671 50.4287C73.4671 35.7226 61.6343 23.8003 47.0386 23.8003V27.886C59.3752 27.886 69.4121 37.9988 69.4121 50.4287C69.4121 62.8586 59.3752 72.9714 47.0386 72.9714V77.0571C61.6361 77.0571 73.4671 65.1348 73.4671 50.4287Z" fill="white"/>
<path d="M45.1546 56.0942C39.8569 56.0942 35.5473 51.752 35.5473 46.4142C35.5473 41.0764 39.8569 36.7342 45.1546 36.7342V33.6245C38.1546 33.6245 32.4609 39.3613 32.4609 46.4142C32.4609 53.4671 38.1546 59.2039 45.1546 59.2039V56.0942Z" fill="white"/>
<path d="M45.1554 59.9482C37.7471 59.9482 31.7211 53.8766 31.7211 46.4122C31.7211 38.9479 37.7471 32.8763 45.1554 32.8763V29.0186C35.6382 29.0186 27.894 36.8213 27.894 46.4105C27.894 55.9996 35.6382 63.8024 45.1554 63.8024V59.9482Z" fill="white"/>
<path d="M45.1533 64.5523C35.2278 64.5523 27.1513 56.4147 27.1513 46.4141C27.1513 36.4135 35.2278 28.2759 45.1533 28.2759V24.6177C33.2251 24.6177 23.5205 34.3956 23.5205 46.4141C23.5205 58.4326 33.2251 68.2106 45.1533 68.2106V64.5523Z" fill="white"/>
<path d="M45.1536 68.9551C32.817 68.9551 22.7801 58.8423 22.7801 46.4124C22.7801 33.9824 32.817 23.8697 45.1536 23.8697V19.7839C30.5579 19.7839 18.7251 31.7063 18.7251 46.4124C18.7251 61.1185 30.5579 73.0408 45.1536 73.0408V68.9551C45.1554 68.9551 45.1536 68.9551 45.1536 68.9551Z" fill="white"/>
<path d="M47.0386 37.6387V40.7484V40.8624C52.2833 40.8624 56.5328 45.1458 56.5328 50.4284C56.5328 55.711 52.2815 59.9944 47.0386 59.9944V60.1084V63.2181C54.0386 63.2181 59.7323 57.4813 59.7323 50.4284C59.7323 43.3754 54.0386 37.6387 47.0386 37.6387Z" fill="white"/>
<path d="M47.0386 41.6106V59.2447C51.8714 59.2447 55.7903 55.2962 55.7903 50.4268C55.7903 45.5574 51.8714 41.6106 47.0386 41.6106Z" fill="white"/>
</svg>
