<svg width="110" height="85" viewBox="0 0 110 85" fill="none" xmlns="http://www.w3.org/2000/svg">
<path d="M77.6112 57.4472H74.2709V54.1472C71.8237 56.843 69.0056 58.1889 65.8154 58.1889C62.6251 58.1889 59.8959 57.0139 57.6279 54.6625C55.3598 52.3111 54.2251 49.5069 54.2251 46.2486C54.2251 42.9903 55.3654 40.2 57.6487 37.875C59.9306 35.5514 62.7154 34.3903 66.0015 34.3903C69.2876 34.3903 72.0445 35.725 74.2709 38.3917V34.9681H77.6112V57.4472ZM66.0626 55.0139C68.3445 55.0139 70.3112 54.1889 71.9612 52.5389C73.6112 50.8889 74.4362 48.8333 74.4362 46.3722C74.4362 43.9111 73.6251 41.85 72.0029 40.1847C70.3806 38.5208 68.3945 37.6889 66.0431 37.6889C63.6918 37.6889 61.7056 38.5486 60.0834 40.2667C58.4612 41.9861 57.6501 44.0139 57.6501 46.35C57.6501 48.6875 58.4751 50.7153 60.1251 52.4333C61.7737 54.1555 63.7529 55.0139 66.0626 55.0139Z" fill="url(#paint0_linear)"/>
<path d="M96.8318 34.9681L82.8109 67.0056H79.0776L83.6359 56.5875L74.0415 34.9681H77.7748L85.5457 52.2889L93.0554 34.9681H96.8318Z" fill="url(#paint1_linear)"/>
<path d="M42.8568 67.0056H42.1957L41.6679 63.1362L39.7554 67.0056H39.5527L37.6179 63.1042L37.0888 67.0056H36.4443L37.2527 61.3167H37.4152L39.6527 65.832L41.8763 61.3167H42.0388L42.8568 67.0056Z" fill="#1B2747"/>
<path d="M51.864 64.7362C51.864 65.3112 51.8056 65.7528 51.689 66.0612C51.5723 66.3695 51.3653 66.6278 51.0667 66.8348C50.7681 67.0417 50.4209 67.1459 50.0209 67.1459C49.7042 67.1459 49.4195 67.0959 49.1667 66.9945C48.9126 66.8931 48.7015 66.7515 48.5334 66.5667C48.3654 66.3834 48.2445 66.1778 48.1723 65.9528C48.1001 65.7278 48.064 65.3223 48.064 64.7362V61.3167H48.732V64.7362C48.732 65.1042 48.7431 65.3695 48.764 65.5334C48.7848 65.6959 48.8431 65.8542 48.9417 66.007C49.0404 66.1598 49.182 66.282 49.3654 66.3723C49.5501 66.4626 49.757 66.5084 49.9903 66.5084C50.2695 66.5084 50.5126 66.4265 50.7167 66.264C50.9223 66.1015 51.0528 65.9112 51.114 65.6973C51.1737 65.482 51.2028 65.1626 51.2028 64.7376V61.3181H51.8626V64.7362H51.864Z" fill="#1B2747"/>
<path d="M59.5177 62.5681C59.3108 62.289 59.1344 62.1001 58.9885 62.0043C58.8441 61.9084 58.6747 61.8598 58.4802 61.8598C58.2858 61.8598 58.1219 61.9223 57.9899 62.0459C57.858 62.1695 57.7913 62.3293 57.7913 62.5237C57.7913 62.7181 57.8538 62.8876 57.9774 63.0334C58.1024 63.1793 58.3885 63.4154 58.8358 63.7445C59.283 64.0737 59.6108 64.3834 59.8191 64.6737C60.026 64.964 60.1302 65.2695 60.1302 65.5904C60.1302 66.0098 59.9677 66.3737 59.6441 66.682C59.3205 66.9904 58.9427 67.1445 58.5135 67.1445C57.7566 67.1445 57.1635 66.7223 56.7344 65.8779L57.301 65.5515C57.6372 66.1779 58.0163 66.4917 58.4358 66.4917C58.7052 66.4917 58.9358 66.407 59.1274 66.2348C59.3191 66.064 59.4149 65.864 59.4149 65.6362C59.4149 65.4084 59.3344 65.1918 59.1747 64.9876C59.0149 64.7834 58.7372 64.532 58.3441 64.2334C57.9497 63.9362 57.6788 63.7084 57.5316 63.5529C57.3844 63.3973 57.276 63.232 57.2094 63.0556C57.1427 62.8793 57.1094 62.7029 57.1094 62.5279C57.1094 62.1501 57.2399 61.8293 57.501 61.5681C57.7635 61.3056 58.101 61.1751 58.5149 61.1751C58.8358 61.1751 59.1163 61.257 59.3538 61.4195C59.5927 61.582 59.8247 61.8251 60.0538 62.1459L59.5177 62.5681Z" fill="#1B2747"/>
<path d="M65.9845 67.0056H65.3164V61.3167H65.9845V67.0056Z" fill="#1B2747"/>
<path d="M76.6842 65.964C76.0731 66.7515 75.2328 67.146 74.1662 67.146C73.2648 67.146 72.5259 66.8613 71.9509 66.2904C71.3759 65.721 71.0884 65.0002 71.0884 64.1307C71.0884 63.5918 71.2217 63.0946 71.4884 62.639C71.755 62.1835 72.1245 61.8252 72.5953 61.5668C73.0662 61.3085 73.5759 61.1779 74.1217 61.1779C74.6675 61.1779 75.1578 61.2835 75.5912 61.4932C76.0231 61.7029 76.3842 62.0099 76.6745 62.4141L76.162 62.8099C75.6231 62.1571 74.9578 61.8307 74.1648 61.8307C73.5175 61.8307 72.9592 62.0585 72.4898 62.5141C72.0203 62.9696 71.787 63.5279 71.787 64.189C71.787 64.8502 72.0162 65.4015 72.4745 65.8446C72.9328 66.2876 73.5273 66.5099 74.2578 66.5099C74.9884 66.5099 75.6231 66.196 76.162 65.5696L76.6842 65.964Z" fill="#1B2747"/>
<path d="M50.521 39.325C50.521 31.8459 44.4363 25.7625 36.9585 25.7625V28.7709C42.7793 28.7709 47.5141 33.5056 47.5141 39.3264C47.5141 45.1472 42.7793 49.882 36.9585 49.882V52.8903C44.4377 52.8875 50.521 46.8042 50.521 39.325Z" fill="url(#paint2_linear)"/>
<path d="M53.9557 39.3249C53.9557 29.9527 46.3307 22.3277 36.9585 22.3277V25.1805C44.7585 25.1805 51.1029 31.5263 51.1029 39.3249C51.1029 47.1235 44.7585 53.4694 36.9585 53.4694V56.3221C46.3307 56.3221 53.9557 48.6972 53.9557 39.3249Z" fill="url(#paint3_linear)"/>
<path d="M57.7238 39.325C57.7238 27.857 48.4266 18.5598 36.9585 18.5598V21.7459C46.6516 21.7459 54.5377 29.632 54.5377 39.325C54.5377 49.0181 46.6516 56.9042 36.9585 56.9042V60.0903C48.4279 60.0903 57.7238 50.7931 57.7238 39.325Z" fill="url(#paint4_linear)"/>
<path d="M35.479 43.7431C31.3165 43.7431 27.9304 40.357 27.9304 36.1945C27.9304 32.032 31.3165 28.6459 35.479 28.6459V26.2209C29.979 26.2209 25.5054 30.6945 25.5054 36.1945C25.5054 41.6945 29.979 46.1681 35.479 46.1681V43.7431Z" fill="url(#paint5_linear)"/>
<path d="M35.479 46.7486C29.6582 46.7486 24.9234 42.0139 24.9234 36.1931C24.9234 30.3723 29.6582 25.6375 35.479 25.6375V22.6292C28.0012 22.6292 21.9165 28.7139 21.9165 36.1917C21.9165 43.6695 28.0012 49.7542 35.479 49.7542V46.7486Z" fill="url(#paint6_linear)"/>
<path d="M35.4777 50.339C27.6791 50.339 21.3332 43.9932 21.3332 36.1946C21.3332 28.396 27.6791 22.0501 35.4777 22.0501V19.1973C26.1055 19.1973 18.4805 26.8223 18.4805 36.1946C18.4805 45.5668 26.1055 53.1918 35.4777 53.1918V50.339C35.4777 50.339 35.4791 50.339 35.4777 50.339Z" fill="url(#paint7_linear)"/>
<path d="M35.4782 53.7723C25.7851 53.7723 17.899 45.8862 17.899 36.1931C17.899 26.5 25.7851 18.6139 35.4782 18.6139V15.4278C24.0101 15.4278 14.7129 24.725 14.7129 36.1931C14.7129 47.6612 24.0101 56.9584 35.4782 56.9584V53.7723C35.4782 53.7723 35.4796 53.7723 35.4782 53.7723Z" fill="url(#paint8_linear)"/>
<path d="M36.9585 29.3514V31.7764V31.8653C41.0793 31.8653 44.4182 35.2055 44.4182 39.325C44.4182 43.4444 41.0779 46.7847 36.9585 46.7847V46.8736V49.2986C42.4585 49.2986 46.9321 44.825 46.9321 39.325C46.9321 33.825 42.4585 29.3514 36.9585 29.3514Z" fill="url(#paint9_linear)"/>
<path d="M36.9585 32.4486V46.2C40.7557 46.2 43.8349 43.1208 43.8349 39.3236C43.8349 35.5263 40.7557 32.4486 36.9585 32.4486Z" fill="url(#paint10_linear)"/>
<defs>
<linearGradient id="paint0_linear" x1="65.9187" y1="75.0954" x2="65.9187" y2="48.966" gradientUnits="userSpaceOnUse">
<stop stop-color="#005BA3"/>
<stop offset="1" stop-color="#0097DB"/>
</linearGradient>
<linearGradient id="paint1_linear" x1="85.4368" y1="71.8824" x2="85.4368" y2="44.3817" gradientUnits="userSpaceOnUse">
<stop stop-color="#005BA3"/>
<stop offset="1" stop-color="#0097DB"/>
</linearGradient>
<linearGradient id="paint2_linear" x1="43.7402" y1="67.1232" x2="43.7402" y2="40.9938" gradientUnits="userSpaceOnUse">
<stop stop-color="#005BA3"/>
<stop offset="1" stop-color="#0097DB"/>
</linearGradient>
<linearGradient id="paint3_linear" x1="45.4574" y1="67.1231" x2="45.4574" y2="40.9937" gradientUnits="userSpaceOnUse">
<stop stop-color="#005BA3"/>
<stop offset="1" stop-color="#0097DB"/>
</linearGradient>
<linearGradient id="paint4_linear" x1="47.3416" y1="67.1232" x2="47.3416" y2="40.9938" gradientUnits="userSpaceOnUse">
<stop stop-color="#005BA3"/>
<stop offset="1" stop-color="#0097DB"/>
</linearGradient>
<linearGradient id="paint5_linear" x1="30.4917" y1="67.1232" x2="30.4917" y2="40.9938" gradientUnits="userSpaceOnUse">
<stop stop-color="#005BA3"/>
<stop offset="1" stop-color="#0097DB"/>
</linearGradient>
<linearGradient id="paint6_linear" x1="28.697" y1="67.1232" x2="28.697" y2="40.9938" gradientUnits="userSpaceOnUse">
<stop stop-color="#005BA3"/>
<stop offset="1" stop-color="#0097DB"/>
</linearGradient>
<linearGradient id="paint7_linear" x1="26.9799" y1="67.1232" x2="26.9799" y2="40.9939" gradientUnits="userSpaceOnUse">
<stop stop-color="#005BA3"/>
<stop offset="1" stop-color="#0097DB"/>
</linearGradient>
<linearGradient id="paint8_linear" x1="25.0962" y1="67.1232" x2="25.0962" y2="40.9938" gradientUnits="userSpaceOnUse">
<stop stop-color="#005BA3"/>
<stop offset="1" stop-color="#0097DB"/>
</linearGradient>
<linearGradient id="paint9_linear" x1="41.9455" y1="67.1231" x2="41.9455" y2="40.9937" gradientUnits="userSpaceOnUse">
<stop stop-color="#005BA3"/>
<stop offset="1" stop-color="#0097DB"/>
</linearGradient>
<linearGradient id="paint10_linear" x1="40.3967" y1="67.1231" x2="40.3967" y2="40.9937" gradientUnits="userSpaceOnUse">
<stop stop-color="#005BA3"/>
<stop offset="1" stop-color="#0097DB"/>
</linearGradient>
</defs>
</svg>
