<?xml version="1.0" encoding="utf-8"?>
<!-- Generator: Adobe Illustrator 24.1.0, SVG Export Plug-In . SVG Version: 6.00 Build 0)  -->
<svg version="1.1" id="Layer_1" xmlns="http://www.w3.org/2000/svg" xmlns:xlink="http://www.w3.org/1999/xlink" x="0px" y="0px"
	 viewBox="0 0 15 13" style="enable-background:new 0 0 15 13;" xml:space="preserve">
<style type="text/css">
	.st0{opacity:0.5;fill-rule:evenodd;clip-rule:evenodd;fill:#FFFFFF;enable-background:new    ;}
</style>
<path class="st0" d="M12.1,13H7.4c-0.5,0-1-0.2-1.3-0.5l-0.9-0.9C5,11.4,4.9,11.2,5,11c0.1-0.2,0.2-0.4,0.5-0.5
	c0.2-0.1,0.5,0,0.6,0.2l0.9,0.9c0.1,0.1,0.3,0.2,0.4,0.2h4.7c0.3,0,0.6-0.2,0.6-0.5l1-4.3c0-0.2,0-0.4-0.1-0.5
	c-0.1-0.1-0.3-0.2-0.5-0.2H8.5C8.1,6.2,7.7,6,7.4,5.6C7.2,5.2,7.2,4.8,7.4,4.4l1.1-2.1c0.1-0.2,0.1-0.5,0-0.7
	C8.3,1.4,8.1,1.2,7.8,1.2l-2.7,4C4.6,6,4.3,6.9,4.2,7.8l-0.4,3.5C3.8,12.3,3,13,2,13H1.9c-1,0-1.9-0.8-1.9-1.9v-5
	c0-1,0.8-1.9,1.9-1.9c0.3,0,0.6,0.3,0.6,0.6c0,0.3-0.3,0.6-0.6,0.6c-0.3,0-0.6,0.3-0.6,0.6v5c0,0.3,0.3,0.6,0.6,0.6H2
	c0.3,0,0.6-0.2,0.6-0.6L3,7.7c0.1-1.1,0.5-2.2,1.1-3.1l2.7-4C7,0.2,7.4,0,7.8,0c0.7,0,1.3,0.3,1.7,0.9c0.4,0.6,0.4,1.3,0.1,1.9
	L8.5,5h4.7c0.6,0,1.1,0.3,1.5,0.7c0.4,0.4,0.5,1,0.4,1.6l-1,4.3C13.7,12.4,13,13,12.1,13z"/>
</svg>
