<svg width="13" height="14" viewBox="0 0 13 14" fill="none" xmlns="http://www.w3.org/2000/svg">
<path d="M12.9931 7.13102C12.9931 6.55744 12.9488 6.13889 12.8531 5.70483H6.62939V8.29366H10.2826C10.209 8.93701 9.81122 9.9059 8.92737 10.557L8.91498 10.6436L10.8828 12.2479L11.0191 12.2622C12.2712 11.0453 12.9931 9.25479 12.9931 7.13102Z" fill="#4285F4"/>
<path d="M6.62977 13.9519C8.41952 13.9519 9.92204 13.3317 11.0195 12.2621L8.92774 10.5569C8.36798 10.9677 7.6167 11.2545 6.62977 11.2545C4.87682 11.2545 3.38903 10.0376 2.85868 8.35559L2.78094 8.36254L0.734767 10.029L0.708008 10.1073C1.79807 12.3861 4.03714 13.9519 6.62977 13.9519Z" fill="#34A853"/>
<path d="M2.85821 8.35563C2.71827 7.92158 2.63729 7.45648 2.63729 6.97594C2.63729 6.49534 2.71827 6.0303 2.85085 5.59624L2.84714 5.5038L0.77533 3.81055L0.707544 3.84448C0.258278 4.79012 0.000488281 5.85204 0.000488281 6.97594C0.000488281 8.09984 0.258278 9.1617 0.707544 10.1073L2.85821 8.35563Z" fill="#FBBC05"/>
<path d="M6.62976 2.69735C7.87448 2.69735 8.71412 3.26318 9.19288 3.73602L11.0637 1.81375C9.91471 0.689847 8.41951 0 6.62976 0C4.03714 0 1.79807 1.5657 0.708008 3.8445L2.85131 5.59626C3.38903 3.91428 4.87682 2.69735 6.62976 2.69735Z" fill="#EB4335"/>
</svg>
