<?xml version="1.0" encoding="utf-8"?>
<!-- Generator: Adobe Illustrator 24.1.0, SVG Export Plug-In . SVG Version: 6.00 Build 0)  -->
<svg version="1.1" id="Layer_1" xmlns="http://www.w3.org/2000/svg" xmlns:xlink="http://www.w3.org/1999/xlink" x="0px" y="0px"
	 viewBox="0 0 110 70.1" style="enable-background:new 0 0 110 70.1;" xml:space="preserve">
<style type="text/css">
	.st0{fill:url(#SVGID_1_);}
	.st1{fill:url(#SVGID_2_);}
	.st2{fill:#1B2747;}
	.st3{fill:url(#SVGID_3_);}
	.st4{fill:url(#SVGID_4_);}
	.st5{fill:url(#SVGID_5_);}
	.st6{fill:url(#SVGID_6_);}
	.st7{fill:url(#SVGID_7_);}
	.st8{fill:url(#SVGID_8_);}
	.st9{fill:url(#SVGID_9_);}
	.st10{fill:url(#SVGID_10_);}
	.st11{fill:url(#SVGID_11_);}
</style>
<g>
	
		<linearGradient id="SVGID_1_" gradientUnits="userSpaceOnUse" x1="68.4307" y1="-7.0344" x2="68.4307" y2="27.5548" gradientTransform="matrix(1 0 0 -1 0 72.789)">
		<stop  offset="0" style="stop-color:#005BA3"/>
		<stop  offset="1" style="stop-color:#0097DB"/>
	</linearGradient>
	<path class="st0" d="M83.9,56.5h-4.4v-4.4c-3.2,3.6-7,5.4-11.2,5.4c-4.2,0-7.8-1.6-10.8-4.7c-3-3.1-4.5-6.8-4.5-11.1
		s1.5-8,4.5-11.1c3-3.1,6.7-4.6,11.1-4.6c4.4,0,8,1.8,10.9,5.3v-4.5h4.4V56.5z M68.6,53.2c3,0,5.6-1.1,7.8-3.3
		c2.2-2.2,3.3-4.9,3.3-8.2s-1.1-6-3.2-8.2c-2.1-2.2-4.8-3.3-7.9-3.3c-3.1,0-5.7,1.1-7.9,3.4c-2.1,2.3-3.2,5-3.2,8.1
		c0,3.1,1.1,5.8,3.3,8.1C62.9,52.1,65.6,53.2,68.6,53.2z"/>
	
		<linearGradient id="SVGID_2_" gradientUnits="userSpaceOnUse" x1="94.2687" y1="-2.7812" x2="94.2687" y2="33.6234" gradientTransform="matrix(1 0 0 -1 0 72.789)">
		<stop  offset="0" style="stop-color:#005BA3"/>
		<stop  offset="1" style="stop-color:#0097DB"/>
	</linearGradient>
	<path class="st1" d="M109.4,26.7L90.8,69.1h-4.9l6-13.8L79.2,26.7h4.9l10.3,22.9l9.9-22.9H109.4z"/>
	<path class="st2" d="M37.9,69.1H37L36.3,64l-2.5,5.1h-0.3L31,63.9l-0.7,5.2h-0.9l1.1-7.5h0.2l3,6l2.9-6h0.2L37.9,69.1z"/>
	<path class="st2" d="M49.8,66.1c0,0.8-0.1,1.3-0.2,1.8c-0.2,0.4-0.4,0.8-0.8,1c-0.4,0.3-0.9,0.4-1.4,0.4c-0.4,0-0.8-0.1-1.1-0.2
		c-0.3-0.1-0.6-0.3-0.8-0.6c-0.2-0.2-0.4-0.5-0.5-0.8c-0.1-0.3-0.1-0.8-0.1-1.6v-4.5h0.9v4.5c0,0.5,0,0.8,0,1.1
		c0,0.2,0.1,0.4,0.2,0.6c0.1,0.2,0.3,0.4,0.6,0.5c0.2,0.1,0.5,0.2,0.8,0.2c0.4,0,0.7-0.1,1-0.3c0.3-0.2,0.4-0.5,0.5-0.8
		c0.1-0.3,0.1-0.7,0.1-1.3v-4.5h0.9L49.8,66.1L49.8,66.1z"/>
	<path class="st2" d="M60,63.2c-0.3-0.4-0.5-0.6-0.7-0.7c-0.2-0.1-0.4-0.2-0.7-0.2c-0.3,0-0.5,0.1-0.6,0.2c-0.2,0.2-0.3,0.4-0.3,0.6
		c0,0.3,0.1,0.5,0.2,0.7c0.2,0.2,0.5,0.5,1.1,0.9c0.6,0.4,1,0.8,1.3,1.2c0.3,0.4,0.4,0.8,0.4,1.2c0,0.6-0.2,1-0.6,1.4
		c-0.4,0.4-0.9,0.6-1.5,0.6c-1,0-1.8-0.6-2.4-1.7l0.8-0.4c0.4,0.8,0.9,1.2,1.5,1.2c0.4,0,0.7-0.1,0.9-0.3c0.3-0.2,0.4-0.5,0.4-0.8
		s-0.1-0.6-0.3-0.9c-0.2-0.3-0.6-0.6-1.1-1c-0.5-0.4-0.9-0.7-1.1-0.9c-0.2-0.2-0.3-0.4-0.4-0.7c-0.1-0.2-0.1-0.5-0.1-0.7
		c0-0.5,0.2-0.9,0.5-1.3c0.3-0.3,0.8-0.5,1.3-0.5c0.4,0,0.8,0.1,1.1,0.3c0.3,0.2,0.6,0.5,0.9,1L60,63.2z"/>
	<path class="st2" d="M68.5,69.1h-0.9v-7.5h0.9V69.1z"/>
	<path class="st2" d="M82.7,67.7c-0.8,1-1.9,1.6-3.3,1.6c-1.2,0-2.2-0.4-2.9-1.1c-0.8-0.8-1.1-1.7-1.1-2.9c0-0.7,0.2-1.4,0.5-2
		c0.4-0.6,0.8-1.1,1.5-1.4c0.6-0.3,1.3-0.5,2-0.5c0.7,0,1.4,0.1,1.9,0.4c0.6,0.3,1,0.7,1.4,1.2L82,63.6c-0.7-0.9-1.6-1.3-2.6-1.3
		c-0.9,0-1.6,0.3-2.2,0.9c-0.6,0.6-0.9,1.3-0.9,2.2c0,0.9,0.3,1.6,0.9,2.2c0.6,0.6,1.4,0.9,2.4,0.9c1,0,1.8-0.4,2.5-1.2L82.7,67.7z"
		/>
	
		<linearGradient id="SVGID_3_" gradientUnits="userSpaceOnUse" x1="39.0716" y1="3.5189" x2="39.0716" y2="38.1082" gradientTransform="matrix(1 0 0 -1 0 72.789)">
		<stop  offset="0" style="stop-color:#005BA3"/>
		<stop  offset="1" style="stop-color:#0097DB"/>
	</linearGradient>
	<path class="st3" d="M48,32.5c0-9.9-8.1-18-18-18v4c7.7,0,14,6.3,14,14s-6.3,14-14,14v4C40,50.4,48,42.4,48,32.5z"/>
	
		<linearGradient id="SVGID_4_" gradientUnits="userSpaceOnUse" x1="41.345" y1="3.5191" x2="41.345" y2="38.1083" gradientTransform="matrix(1 0 0 -1 0 72.789)">
		<stop  offset="0" style="stop-color:#005BA3"/>
		<stop  offset="1" style="stop-color:#0097DB"/>
	</linearGradient>
	<path class="st4" d="M52.6,32.5C52.6,20.1,42.5,10,30.1,10v3.8c10.3,0,18.7,8.4,18.7,18.7s-8.4,18.7-18.7,18.7V55
		C42.5,55,52.6,44.9,52.6,32.5z"/>
	
		<linearGradient id="SVGID_5_" gradientUnits="userSpaceOnUse" x1="43.839" y1="3.5189" x2="43.839" y2="38.1082" gradientTransform="matrix(1 0 0 -1 0 72.789)">
		<stop  offset="0" style="stop-color:#005BA3"/>
		<stop  offset="1" style="stop-color:#0097DB"/>
	</linearGradient>
	<path class="st5" d="M57.6,32.5C57.6,17.3,45.3,5,30.1,5v4.2c12.8,0,23.3,10.4,23.3,23.3c0,12.8-10.4,23.3-23.3,23.3V60
		C45.3,60,57.6,47.7,57.6,32.5z"/>
	
		<linearGradient id="SVGID_6_" gradientUnits="userSpaceOnUse" x1="21.5349" y1="3.5189" x2="21.5349" y2="38.1082" gradientTransform="matrix(1 0 0 -1 0 72.789)">
		<stop  offset="0" style="stop-color:#005BA3"/>
		<stop  offset="1" style="stop-color:#0097DB"/>
	</linearGradient>
	<path class="st6" d="M28.1,38.3c-5.5,0-10-4.5-10-10s4.5-10,10-10v-3.2c-7.3,0-13.2,5.9-13.2,13.2s5.9,13.2,13.2,13.2V38.3z"/>
	
		<linearGradient id="SVGID_7_" gradientUnits="userSpaceOnUse" x1="19.1595" y1="3.5189" x2="19.1595" y2="38.1082" gradientTransform="matrix(1 0 0 -1 0 72.789)">
		<stop  offset="0" style="stop-color:#005BA3"/>
		<stop  offset="1" style="stop-color:#0097DB"/>
	</linearGradient>
	<path class="st7" d="M28.1,42.3c-7.7,0-14-6.3-14-14s6.3-14,14-14v-4c-9.9,0-18,8.1-18,18s8.1,18,18,18V42.3z"/>
	
		<linearGradient id="SVGID_8_" gradientUnits="userSpaceOnUse" x1="16.8848" y1="3.5189" x2="16.8848" y2="38.1081" gradientTransform="matrix(1 0 0 -1 0 72.789)">
		<stop  offset="0" style="stop-color:#005BA3"/>
		<stop  offset="1" style="stop-color:#0097DB"/>
	</linearGradient>
	<path class="st8" d="M28.1,47.1c-10.3,0-18.7-8.4-18.7-18.7S17.8,9.6,28.1,9.6V5.8C15.7,5.8,5.6,15.9,5.6,28.3
		c0,12.4,10.1,22.5,22.5,22.5V47.1C28.1,47.1,28.1,47.1,28.1,47.1z"/>
	
		<linearGradient id="SVGID_9_" gradientUnits="userSpaceOnUse" x1="14.3914" y1="3.5189" x2="14.3914" y2="38.1082" gradientTransform="matrix(1 0 0 -1 0 72.789)">
		<stop  offset="0" style="stop-color:#005BA3"/>
		<stop  offset="1" style="stop-color:#0097DB"/>
	</linearGradient>
	<path class="st9" d="M28.1,51.6c-12.8,0-23.3-10.4-23.3-23.3S15.3,5.1,28.1,5.1V0.8C13,0.8,0.6,13.1,0.6,28.3S13,55.8,28.1,55.8
		V51.6C28.1,51.6,28.1,51.6,28.1,51.6z"/>
	
		<linearGradient id="SVGID_10_" gradientUnits="userSpaceOnUse" x1="36.6962" y1="3.5191" x2="36.6962" y2="38.1083" gradientTransform="matrix(1 0 0 -1 0 72.789)">
		<stop  offset="0" style="stop-color:#005BA3"/>
		<stop  offset="1" style="stop-color:#0097DB"/>
	</linearGradient>
	<path class="st10" d="M30.1,19.3v3.2v0.1c5.5,0,9.9,4.4,9.9,9.9c0,5.5-4.4,9.9-9.9,9.9v0.1v3.2c7.3,0,13.2-5.9,13.2-13.2
		S37.4,19.3,30.1,19.3z"/>
	
		<linearGradient id="SVGID_11_" gradientUnits="userSpaceOnUse" x1="34.6462" y1="3.5191" x2="34.6462" y2="38.1083" gradientTransform="matrix(1 0 0 -1 0 72.789)">
		<stop  offset="0" style="stop-color:#005BA3"/>
		<stop  offset="1" style="stop-color:#0097DB"/>
	</linearGradient>
	<path class="st11" d="M30.1,23.4v18.2c5,0,9.1-4.1,9.1-9.1C39.2,27.4,35.1,23.4,30.1,23.4z"/>
</g>
</svg>
